<?xml version="1.0" encoding="UTF-8" standalone="no"?>
<!-- Created with Inkscape (http://www.inkscape.org/) -->

<svg
   xmlns:dc="http://purl.org/dc/elements/1.1/"
   xmlns:cc="http://creativecommons.org/ns#"
   xmlns:rdf="http://www.w3.org/1999/02/22-rdf-syntax-ns#"
   xmlns:svg="http://www.w3.org/2000/svg"
   xmlns="http://www.w3.org/2000/svg"
   xmlns:sodipodi="http://sodipodi.sourceforge.net/DTD/sodipodi-0.dtd"
   xmlns:inkscape="http://www.inkscape.org/namespaces/inkscape"
   width="210mm"
   height="297mm"
   viewBox="0 0 744.09448819 1052.3622047"
   id="svg2"
   version="1.1"
   inkscape:version="0.91 r13725"
   sodipodi:docname="logo.svg">
  <defs
     id="defs4" />
  <sodipodi:namedview
     id="base"
     pagecolor="#ffffff"
     bordercolor="#666666"
     borderopacity="1.0"
     inkscape:pageopacity="0.0"
     inkscape:pageshadow="2"
     inkscape:zoom="0.35"
     inkscape:cx="-467.85714"
     inkscape:cy="520"
     inkscape:document-units="px"
     inkscape:current-layer="layer1"
     showgrid="false"
     inkscape:window-width="1920"
     inkscape:window-height="1018"
     inkscape:window-x="1912"
     inkscape:window-y="-8"
     inkscape:window-maximized="1" />
  <metadata
     id="metadata7">
    <rdf:RDF>
      <cc:Work
         rdf:about="">
        <dc:format>image/svg+xml</dc:format>
        <dc:type
           rdf:resource="http://purl.org/dc/dcmitype/StillImage" />
        <dc:title />
      </cc:Work>
    </rdf:RDF>
  </metadata>
  <g
     inkscape:label="Layer 1"
     inkscape:groupmode="layer"
     id="layer1">
    <path
       style="fill:#fa7b01;fill-opacity:1"
       d="M 343.05613,837.76342 C 207.99353,827.48265 88.107692,736.35795 40.484785,607.78031 25.28032,566.72962 19.397591,532.39117 19.397591,484.69095 c 0,-34.59193 0.952146,-45.52127 6.102392,-70.04729 C 54.618064,275.97967 156.59574,171.45369 295.14157,138.26402 c 19.88203,-4.7629 29.12099,-5.42374 76.8466,-5.49667 56.99162,-0.0869 65.35613,0.97668 107.28964,13.64479 24.37363,7.36325 66.88578,27.90361 91.78228,44.34593 30.21052,19.95186 75.24258,65.25645 95.82965,96.40966 26.43009,39.9951 43.20354,80.12886 53.83445,128.80963 6.88468,31.52595 6.24669,110.75409 -1.14546,142.2492 -11.34944,48.35555 -27.46664,86.026 -53.70624,125.52659 -19.46163,29.29715 -63.19107,73.16498 -93.2435,93.53852 -67.30748,45.63 -147.39847,66.72676 -229.57286,60.47175 z M 307.18155,766.1756 c 1.42018,-3.64663 8.92848,-24.91819 16.68511,-47.27008 l 14.10294,-40.63985 -2.35652,-35.1836 c -1.29607,-19.351 -2.59497,-35.42211 -2.88643,-35.71357 -0.29146,-0.29145 -3.51132,-1.27821 -7.15524,-2.19276 -5.81513,-1.4595 -6.63232,-0.96751 -6.68242,4.02327 -0.0315,3.12738 -1.0341,18.29805 -2.22819,33.71257 -1.93399,24.96583 -3.10169,29.8744 -10.69267,44.94807 -4.68688,9.30688 -9.84399,22.19136 -11.46024,28.63213 -1.87248,7.46186 -7.25261,17.10096 -14.82922,26.56816 -6.53981,8.1717 -12.04324,15.76636 -12.22985,16.87703 -0.31917,1.89959 27.41626,12.20229 34.07717,12.65843 1.69039,0.11574 4.23538,-2.77315 5.65556,-6.4198 z m 239.89224,-42.05544 c 11.89193,-8.54015 11.89264,-8.38228 -0.12558,-27.16997 -7.86672,-12.29769 -9.40838,-18.29805 -22.98256,-89.45093 -8.00264,-41.94792 -14.55023,-77.10282 -14.55023,-78.12198 0,-2.4895 -18.44504,-14.58811 -19.94844,-13.08472 -0.65186,0.65185 1.42636,13.33727 4.61824,28.18985 3.19188,14.85255 7.40058,40.02408 9.35265,55.93671 6.25636,50.99945 13.45378,90.78629 19.59307,108.30922 3.288,9.38464 6.41781,18.41916 6.95516,20.0767 1.52917,4.71704 5.519,3.62314 17.08774,-4.68488 z M 279.73364,677.57122 c 6.77802,-16.98997 10.07758,-29.45007 11.17306,-42.19255 0.85502,-9.9454 3.14308,-37.06918 5.08459,-60.27509 3.47627,-41.55019 7.24223,-80.79697 15.26545,-159.08736 l 4.07284,-39.74268 9.64402,-1.70817 c 16.83526,-2.98192 48.21081,-2.11764 69.05,1.90202 24.06561,4.64204 48.06461,5.29162 89.40099,2.41979 l 30.66782,-2.13065 20.56599,17.46027 c 11.31132,9.60314 20.63303,17.61412 20.71493,17.80215 0.0819,0.18806 5.36512,41.40511 11.74045,91.59346 l 11.59151,91.25154 20.20537,20.33423 c 13.95895,14.04798 21.69605,20.12414 25.02736,19.65462 10.21107,-1.4392 31.50413,-52.38953 39.74848,-95.11064 C 681.6747,446.52938 652.94584,349.48526 586.89702,280.35275 499.02094,188.37389 364.68746,162.78758 247.8215,215.76956 186.83398,243.41865 129.53226,301.97986 101.65835,365.14535 81.867674,409.99329 72.677348,465.31046 77.551205,510.24768 c 7.93116,73.12547 36.659965,134.36898 86.124185,183.59782 11.65846,11.60296 21.97516,21.09627 22.92602,21.09627 0.95086,0 8.06219,-5.29914 15.80294,-11.77584 13.4527,-11.25591 14.37096,-12.75582 20.79744,-33.97107 4.07358,-13.44767 7.65282,-32.79961 9.08171,-49.10196 1.29708,-14.79873 3.92673,-43.72354 5.84361,-64.27735 1.91691,-20.5538 5.75641,-63.40938 8.53225,-95.23463 2.7758,-31.82524 5.57153,-62.31518 6.21271,-67.75542 l 1.16579,-9.89134 18.55294,-2.60341 c 10.20412,-1.43187 18.89299,-2.26335 19.3086,-1.84775 0.82683,0.82684 -1.9204,36.52447 -9.10132,118.26297 -2.56293,29.17314 -6.40725,73.11368 -8.54294,97.64564 -3.14705,36.14964 -5.44888,49.89002 -12.14459,72.49532 -4.54386,15.34048 -8.26154,33.22409 -8.26154,39.7414 l 0,11.8496 8.13308,-8.39836 c 5.1462,-5.31398 11.66551,-17.25281 17.75155,-32.50835 z m 280.30843,-88.60437 c -0.002,-4.30966 -4.27264,-41.89978 -9.48942,-83.53359 l -9.48508,-75.69785 -10.30058,-10.49552 c -10.63254,-10.83378 -13.00127,-11.89319 -18.62554,-8.33029 -2.77395,1.75725 -2.69502,3.96623 0.49414,13.82634 3.7948,11.73263 7.01893,26.0246 25.76294,114.20259 5.49666,25.85802 10.96537,49.45572 12.15271,52.43932 3.36146,8.44686 9.49601,6.88848 9.49083,-2.411 z"
       id="path3360"
       inkscape:connector-curvature="0"
       inkscape:transform-center-x="-55.10865"
       inkscape:transform-center-y="-60.61951" />
  </g>
</svg>
